# xmcd CD database file
#
# Track frame offsets:
#	150
#	1725
#	19297
#	57880
#	75599
#	100566
#	124759
#	153707
#	181538
#	207728
#	230707
#	254409
#
# Disc length: 3610 seconds
#
# Revision: 1
# Processed by: cddbd v1.5.1PL0 Copyright (c) Steve Scherf et al.
# Submitted via: CDex 1.51
#
DISCID=940e180c
DTITLE=Andy Winter Group - Delicate Move
DYEAR=2002
DGENRE=Jazz
TTITLE0=Columbus Avenue 9.47 Am
TTITLE1=Track The Tag
TTITLE2=Spicy Move
TTITLE3=Atlanta
TTITLE4=June
TTITLE5=Sunshower
TTITLE6=New 99
TTITLE7=Part Two
TTITLE8=Faith
TTITLE9=Waiting For Change
TTITLE10=Multi-Rhythmoculose
TTITLE11=June (Radio Version)
EXTD=YEAR: 2002
EXTT0=
EXTT1=
EXTT2=
EXTT3=
EXTT4=
EXTT5=
EXTT6=
EXTT7=
EXTT8=
EXTT9=
EXTT10=
EXTT11=
PLAYORDER=
